<?xml version="1.0" encoding="UTF-8"?>
<svg xmlns="http://www.w3.org/2000/svg" xmlns:xlink="http://www.w3.org/1999/xlink" width="48pt" height="42pt" viewBox="0 0 48 42" version="1.1">
<g id="surface1">
<path style="fill-rule:nonzero;fill:rgb(100%,100%,100%);fill-opacity:1;stroke-width:1;stroke-linecap:butt;stroke-linejoin:miter;stroke:rgb(100%,100%,100%);stroke-opacity:1;stroke-miterlimit:4;" d="M 288 0 C 218.390625 0 162 56.428571 162 126 C 162 182.238095 244.359375 284.809524 275.90625 322 C 282.28125 329.571429 293.71875 329.571429 300.09375 322 C 331.640625 284.809524 414 182.238095 414 126 C 414 56.428571 357.609375 0 288 0 Z M 288 168 C 264.796875 168 246 149.190476 246 126 C 246 102.809524 264.796875 84 288 84 C 311.203125 84 330 102.809524 330 126 C 330 149.190476 311.203125 168 288 168 Z M 20.109375 215.952381 C 7.96875 220.809524 0 232.571429 0 245.666667 L 0 496 C 0 507.285714 11.4375 515.047619 21.9375 510.857143 L 159.984375 448 L 159.984375 214.904762 C 151.171875 198.952381 143.953125 183.380952 138.75 168.47619 Z M 288 359.666667 C 273.9375 359.666667 260.625 353.47619 251.484375 342.714286 C 231.84375 319.52381 210.9375 293.095238 192 266 L 192 448 L 384 512 L 384 266 C 365.0625 293.095238 344.203125 319.52381 324.515625 342.714286 C 315.375 353.47619 302.0625 359.666667 288 359.666667 Z M 554.0625 161.142857 L 416.015625 224 L 416.015625 512 L 555.890625 456.047619 C 568.03125 451.190476 576 439.428571 576 426.333333 L 576 176 C 576 164.714286 564.5625 156.952381 554.0625 161.142857 Z M 554.0625 161.142857 " transform="matrix(0.0833333,0,0,0.0820312,0,0)"/>
</g>
</svg>
