<?xml version="1.0" encoding="UTF-8"?>
<svg xmlns="http://www.w3.org/2000/svg" xmlns:xlink="http://www.w3.org/1999/xlink" width="48pt" height="38pt" viewBox="0 0 48 38" version="1.1">
<g id="surface1">
<path style="fill-rule:nonzero;fill:rgb(100%,100%,100%);fill-opacity:1;stroke-width:1;stroke-linecap:butt;stroke-linejoin:miter;stroke:rgb(100%,100%,100%);stroke-opacity:1;stroke-miterlimit:4;" d="M 497.916667 225.947368 L 286.041667 14.052632 C 277.083333 5.052632 264.84375 0 252.135417 0 L 48.020833 0 C 21.510417 0 0 21.473684 0 48 L 0 252.105263 C 0 264.842105 5.052083 277.052632 14.0625 286.052632 L 225.9375 497.947368 C 244.6875 516.684211 275.052083 516.684211 293.802083 497.947368 L 497.916667 293.842105 C 516.666667 275.052632 516.666667 244.684211 497.916667 225.947368 Z M 111.979167 160 C 85.46875 160 64.010417 138.526316 64.010417 112 C 64.010417 85.473684 85.46875 64 111.979167 64 C 138.489583 64 160 85.473684 160 112 C 160 138.526316 138.489583 160 111.979167 160 Z M 625.9375 293.842105 L 421.822917 497.947368 C 403.072917 516.684211 372.708333 516.684211 353.958333 497.947368 L 353.59375 497.578947 L 527.65625 323.526316 C 544.635417 306.526316 554.010417 283.947368 554.010417 259.894737 C 554.010417 235.842105 544.635417 213.263158 527.65625 196.263158 L 331.40625 0 L 380.104167 0 C 392.864583 0 405.052083 5.052632 414.0625 14.052632 L 625.9375 225.947368 C 644.6875 244.684211 644.6875 275.052632 625.9375 293.842105 Z M 625.9375 293.842105 " transform="matrix(0.075,0,0,0.0742188,0,0)"/>
</g>
</svg>
