<?xml version="1.0" encoding="UTF-8"?>
<svg xmlns="http://www.w3.org/2000/svg" xmlns:xlink="http://www.w3.org/1999/xlink" width="32pt" height="36pt" viewBox="0 0 32 36" version="1.1">
<g id="surface1">
<path style="fill-rule:nonzero;fill:rgb(100%,100%,100%);fill-opacity:1;stroke-width:1;stroke-linecap:butt;stroke-linejoin:miter;stroke:rgb(100%,100%,100%);stroke-opacity:1;stroke-miterlimit:4;" d="M 0 464 C 0 490.5 21.492188 512 48.015625 512 L 399.984375 512 C 426.507812 512 448 490.5 448 464 L 448 192 L 0 192 Z M 319.976562 268 C 319.976562 261.388889 325.390625 256 332.007812 256 L 371.984375 256 C 378.601562 256 384.015625 261.388889 384.015625 268 L 384.015625 308 C 384.015625 314.611111 378.601562 320 371.984375 320 L 332.007812 320 C 325.390625 320 319.976562 314.611111 319.976562 308 Z M 319.976562 396 C 319.976562 389.388889 325.390625 384 332.007812 384 L 371.984375 384 C 378.601562 384 384.015625 389.388889 384.015625 396 L 384.015625 436 C 384.015625 442.611111 378.601562 448 371.984375 448 L 332.007812 448 C 325.390625 448 319.976562 442.611111 319.976562 436 Z M 192.007812 268 C 192.007812 261.388889 197.421875 256 203.984375 256 L 244.015625 256 C 250.578125 256 255.992188 261.388889 255.992188 268 L 255.992188 308 C 255.992188 314.611111 250.578125 320 244.015625 320 L 203.984375 320 C 197.421875 320 192.007812 314.611111 192.007812 308 Z M 192.007812 396 C 192.007812 389.388889 197.421875 384 203.984375 384 L 244.015625 384 C 250.578125 384 255.992188 389.388889 255.992188 396 L 255.992188 436 C 255.992188 442.611111 250.578125 448 244.015625 448 L 203.984375 448 C 197.421875 448 192.007812 442.611111 192.007812 436 Z M 63.984375 268 C 63.984375 261.388889 69.398438 256 76.015625 256 L 115.992188 256 C 122.609375 256 128.023438 261.388889 128.023438 268 L 128.023438 308 C 128.023438 314.611111 122.609375 320 115.992188 320 L 76.015625 320 C 69.398438 320 63.984375 314.611111 63.984375 308 Z M 63.984375 396 C 63.984375 389.388889 69.398438 384 76.015625 384 L 115.992188 384 C 122.609375 384 128.023438 389.388889 128.023438 396 L 128.023438 436 C 128.023438 442.611111 122.609375 448 115.992188 448 L 76.015625 448 C 69.398438 448 63.984375 442.611111 63.984375 436 Z M 399.984375 64 L 352.023438 64 L 352.023438 16 C 352.023438 7.222222 344.804688 0 336 0 L 304.007812 0 C 295.203125 0 287.984375 7.222222 287.984375 16 L 287.984375 64 L 160.015625 64 L 160.015625 16 C 160.015625 7.222222 152.796875 0 143.992188 0 L 112 0 C 103.195312 0 95.976562 7.222222 95.976562 16 L 95.976562 64 L 48.015625 64 C 21.492188 64 0 85.5 0 112 L 0 160 L 448 160 L 448 112 C 448 85.5 426.507812 64 399.984375 64 Z M 399.984375 64 " transform="matrix(0.0714286,0,0,0.0703125,0,0)"/>
</g>
</svg>
