<?xml version="1.0" encoding="UTF-8"?>
<svg xmlns="http://www.w3.org/2000/svg" xmlns:xlink="http://www.w3.org/1999/xlink" width="24pt" height="34pt" viewBox="0 0 24 34" version="1.1">
<g id="surface1">
<path style=" stroke:none;fill-rule:nonzero;fill:rgb(27.3%,21.8%,32.4%);fill-opacity:1;" d="M 16.550781 17 L 23.371094 10.355469 C 24.207031 9.539062 24.207031 8.21875 23.371094 7.398438 L 21.855469 5.925781 C 21.019531 5.109375 19.660156 5.109375 18.824219 5.925781 L 12 12.570312 L 5.175781 5.925781 C 4.339844 5.109375 2.984375 5.109375 2.144531 5.925781 L 0.628906 7.398438 C -0.207031 8.214844 -0.207031 9.539062 0.628906 10.355469 L 7.449219 17 L 0.628906 23.644531 C -0.207031 24.460938 -0.207031 25.78125 0.628906 26.601562 L 2.144531 28.074219 C 2.980469 28.890625 4.339844 28.890625 5.175781 28.074219 L 12 21.429688 L 18.824219 28.074219 C 19.660156 28.890625 21.019531 28.890625 21.855469 28.074219 L 23.371094 26.601562 C 24.207031 25.785156 24.207031 24.460938 23.371094 23.644531 Z M 16.550781 17 "/>
</g>
</svg>
