<?xml version="1.0" encoding="UTF-8"?>
<svg xmlns="http://www.w3.org/2000/svg" xmlns:xlink="http://www.w3.org/1999/xlink" width="16pt" height="16pt" viewBox="0 0 16 16" version="1.1">
<g id="surface1">
<path style=" stroke:none;fill-rule:nonzero;fill:rgb(66.666667%,66.666667%,66.666667%);fill-opacity:1;" d="M 15.78125 13.832031 L 12.667969 10.71875 C 12.527344 10.578125 12.335938 10.5 12.136719 10.5 L 11.625 10.5 C 12.488281 9.394531 13 8.007812 13 6.5 C 13 2.910156 10.089844 0 6.5 0 C 2.910156 0 0 2.910156 0 6.5 C 0 10.089844 2.910156 13 6.5 13 C 8.011719 13 9.398438 12.484375 10.5 11.625 L 10.5 12.132812 C 10.5 12.332031 10.578125 12.523438 10.71875 12.664062 L 13.835938 15.78125 C 14.128906 16.074219 14.605469 16.074219 14.894531 15.78125 L 15.78125 14.894531 C 16.074219 14.601562 16.074219 14.125 15.78125 13.832031 Z M 6.5 11 C 4.015625 11 2 8.988281 2 6.5 C 2 4.015625 4.011719 2 6.5 2 C 8.984375 2 11 4.011719 11 6.5 C 11 8.984375 8.988281 11 6.5 11 Z M 6.5 3.5 C 5.226562 3.5 4.195312 4.53125 4.195312 5.808594 C 4.195312 6.835938 5.703125 8.714844 6.28125 9.398438 C 6.335938 9.460938 6.414062 9.5 6.5 9.5 C 6.585938 9.5 6.667969 9.460938 6.722656 9.398438 C 7.300781 8.714844 8.808594 6.835938 8.808594 5.808594 C 8.808594 4.53125 7.777344 3.5 6.5 3.5 Z M 6.5 6.5 C 6.085938 6.5 5.75 6.164062 5.75 5.75 C 5.75 5.335938 6.085938 5 6.5 5 C 6.914062 5 7.25 5.335938 7.25 5.75 C 7.25 6.164062 6.914062 6.5 6.5 6.5 Z M 6.5 6.5 "/>
</g>
</svg>
