<svg xmlns="http://www.w3.org/2000/svg" xmlns:xlink="http://www.w3.org/1999/xlink" width="32" height="32" version="1.1"><rect id="backgroundrect" width="100%" height="100%" x="0" y="0" fill="none" stroke="none"/>

<g class="currentLayer" style=""><title>Layer 1</title><g id="surface1" class="selected" fill="#ffffff" fill-opacity="1" stroke="#ffffff" stroke-opacity="1">
<path style="fill-rule: nonzero; stroke-width: 2; stroke-linecap: butt; stroke-linejoin: miter; stroke-miterlimit: 4;" d="M20.5,16 C20.5,18.48828125 18.48828125,20.5 16,20.5 C13.51171875,20.5 11.5,18.48828125 11.5,16 C11.5,13.51171875 13.51171875,11.5 16,11.5 C18.48828125,11.5 20.5,13.51171875 20.5,16 zM27,11.5 C24.51171875,11.5 22.5,13.51171875 22.5,16 C22.5,18.48828125 24.51171875,20.5 27,20.5 C29.48828125,20.5 31.5,18.48828125 31.5,16 C31.5,13.51171875 29.48828125,11.5 27,11.5 zM5,11.5 C2.51171875,11.5 0.5,13.51171875 0.5,16 C0.5,18.48828125 2.51171875,20.5 5,20.5 C7.48828125,20.5 9.5,18.48828125 9.5,16 C9.5,13.51171875 7.48828125,11.5 5,11.5 zM5,11.5 " id="svg_1" fill="#ffffff" fill-opacity="1" stroke="#ffffff" stroke-opacity="1"/>
</g></g></svg>